<mxfile host="app.diagrams.net" agent="Mozilla/5.0 (Windows NT 10.0; Win64; x64) AppleWebKit/537.36 (KHTML, like Gecko) Chrome/130.0.0.0 Safari/537.36" version="24.8.2">
  <diagram id="C5RBs43oDa-KdzZeNtuy" name="Page-1">
    <mxGraphModel dx="1103" dy="1767" grid="1" gridSize="10" guides="1" tooltips="1" connect="1" arrows="1" fold="1" page="1" pageScale="1" pageWidth="827" pageHeight="1169" math="0" shadow="0">
      <root>
        <mxCell id="WIyWlLk6GJQsqaUBKTNV-0" />
        <mxCell id="WIyWlLk6GJQsqaUBKTNV-1" parent="WIyWlLk6GJQsqaUBKTNV-0" />
        <mxCell id="WIyWlLk6GJQsqaUBKTNV-2" value="" style="rounded=0;html=1;jettySize=auto;orthogonalLoop=1;fontSize=11;endArrow=block;endFill=0;endSize=8;strokeWidth=1;shadow=0;labelBackgroundColor=none;edgeStyle=orthogonalEdgeStyle;" parent="WIyWlLk6GJQsqaUBKTNV-1" source="Q98vc-4G8OVx7oUc0Fc7-2" edge="1">
          <mxGeometry relative="1" as="geometry">
            <mxPoint x="220" y="170" as="targetPoint" />
          </mxGeometry>
        </mxCell>
        <mxCell id="WIyWlLk6GJQsqaUBKTNV-3" value="Start" style="rounded=1;whiteSpace=wrap;html=1;fontSize=12;glass=0;strokeWidth=1;shadow=0;" parent="WIyWlLk6GJQsqaUBKTNV-1" vertex="1">
          <mxGeometry x="160" y="80" width="120" height="40" as="geometry" />
        </mxCell>
        <mxCell id="Q98vc-4G8OVx7oUc0Fc7-1" value="" style="edgeStyle=orthogonalEdgeStyle;rounded=0;orthogonalLoop=1;jettySize=auto;html=1;" edge="1" parent="WIyWlLk6GJQsqaUBKTNV-1" source="Q98vc-4G8OVx7oUc0Fc7-0" target="WIyWlLk6GJQsqaUBKTNV-3">
          <mxGeometry relative="1" as="geometry" />
        </mxCell>
        <mxCell id="Q98vc-4G8OVx7oUc0Fc7-0" value="" style="ellipse;whiteSpace=wrap;html=1;aspect=fixed;" vertex="1" parent="WIyWlLk6GJQsqaUBKTNV-1">
          <mxGeometry x="195" y="-20" width="50" height="50" as="geometry" />
        </mxCell>
        <mxCell id="Q98vc-4G8OVx7oUc0Fc7-3" value="" style="rounded=0;html=1;jettySize=auto;orthogonalLoop=1;fontSize=11;endArrow=block;endFill=0;endSize=8;strokeWidth=1;shadow=0;labelBackgroundColor=none;edgeStyle=orthogonalEdgeStyle;" edge="1" parent="WIyWlLk6GJQsqaUBKTNV-1" source="WIyWlLk6GJQsqaUBKTNV-3" target="Q98vc-4G8OVx7oUc0Fc7-2">
          <mxGeometry relative="1" as="geometry">
            <mxPoint x="220" y="120" as="sourcePoint" />
            <mxPoint x="220" y="170" as="targetPoint" />
          </mxGeometry>
        </mxCell>
        <mxCell id="Q98vc-4G8OVx7oUc0Fc7-5" value="" style="edgeStyle=orthogonalEdgeStyle;rounded=0;orthogonalLoop=1;jettySize=auto;html=1;" edge="1" parent="WIyWlLk6GJQsqaUBKTNV-1" source="Q98vc-4G8OVx7oUc0Fc7-2" target="Q98vc-4G8OVx7oUc0Fc7-4">
          <mxGeometry relative="1" as="geometry" />
        </mxCell>
        <mxCell id="Q98vc-4G8OVx7oUc0Fc7-2" value="Collection input (pre-recorded videos)" style="rounded=1;whiteSpace=wrap;html=1;" vertex="1" parent="WIyWlLk6GJQsqaUBKTNV-1">
          <mxGeometry x="160" y="150" width="120" height="50" as="geometry" />
        </mxCell>
        <mxCell id="Q98vc-4G8OVx7oUc0Fc7-7" value="" style="edgeStyle=orthogonalEdgeStyle;rounded=0;orthogonalLoop=1;jettySize=auto;html=1;" edge="1" parent="WIyWlLk6GJQsqaUBKTNV-1" source="Q98vc-4G8OVx7oUc0Fc7-4" target="Q98vc-4G8OVx7oUc0Fc7-6">
          <mxGeometry relative="1" as="geometry" />
        </mxCell>
        <mxCell id="Q98vc-4G8OVx7oUc0Fc7-11" value="" style="edgeStyle=orthogonalEdgeStyle;rounded=0;orthogonalLoop=1;jettySize=auto;html=1;" edge="1" parent="WIyWlLk6GJQsqaUBKTNV-1" source="Q98vc-4G8OVx7oUc0Fc7-4" target="Q98vc-4G8OVx7oUc0Fc7-10">
          <mxGeometry relative="1" as="geometry" />
        </mxCell>
        <mxCell id="Q98vc-4G8OVx7oUc0Fc7-4" value="Behavior detection using YOLO model" style="rounded=1;whiteSpace=wrap;html=1;" vertex="1" parent="WIyWlLk6GJQsqaUBKTNV-1">
          <mxGeometry x="160" y="240" width="120" height="60" as="geometry" />
        </mxCell>
        <mxCell id="Q98vc-4G8OVx7oUc0Fc7-14" value="" style="edgeStyle=orthogonalEdgeStyle;rounded=0;orthogonalLoop=1;jettySize=auto;html=1;" edge="1" parent="WIyWlLk6GJQsqaUBKTNV-1" source="Q98vc-4G8OVx7oUc0Fc7-6" target="Q98vc-4G8OVx7oUc0Fc7-13">
          <mxGeometry relative="1" as="geometry" />
        </mxCell>
        <mxCell id="Q98vc-4G8OVx7oUc0Fc7-6" value="Assign scores based on detected behaviors" style="rounded=1;whiteSpace=wrap;html=1;" vertex="1" parent="WIyWlLk6GJQsqaUBKTNV-1">
          <mxGeometry x="160" y="430" width="120" height="60" as="geometry" />
        </mxCell>
        <mxCell id="Q98vc-4G8OVx7oUc0Fc7-12" value="" style="edgeStyle=orthogonalEdgeStyle;rounded=0;orthogonalLoop=1;jettySize=auto;html=1;" edge="1" parent="WIyWlLk6GJQsqaUBKTNV-1" source="Q98vc-4G8OVx7oUc0Fc7-10" target="Q98vc-4G8OVx7oUc0Fc7-6">
          <mxGeometry relative="1" as="geometry" />
        </mxCell>
        <mxCell id="Q98vc-4G8OVx7oUc0Fc7-10" value="Continuous monitoring of attention" style="rounded=1;whiteSpace=wrap;html=1;" vertex="1" parent="WIyWlLk6GJQsqaUBKTNV-1">
          <mxGeometry x="160" y="330" width="120" height="60" as="geometry" />
        </mxCell>
        <mxCell id="Q98vc-4G8OVx7oUc0Fc7-16" value="" style="edgeStyle=orthogonalEdgeStyle;rounded=0;orthogonalLoop=1;jettySize=auto;html=1;" edge="1" parent="WIyWlLk6GJQsqaUBKTNV-1" source="Q98vc-4G8OVx7oUc0Fc7-13" target="Q98vc-4G8OVx7oUc0Fc7-15">
          <mxGeometry relative="1" as="geometry" />
        </mxCell>
        <mxCell id="Q98vc-4G8OVx7oUc0Fc7-13" value="Present insights and scores" style="rounded=1;whiteSpace=wrap;html=1;" vertex="1" parent="WIyWlLk6GJQsqaUBKTNV-1">
          <mxGeometry x="160" y="525" width="120" height="60" as="geometry" />
        </mxCell>
        <mxCell id="Q98vc-4G8OVx7oUc0Fc7-18" value="" style="edgeStyle=orthogonalEdgeStyle;rounded=0;orthogonalLoop=1;jettySize=auto;html=1;" edge="1" parent="WIyWlLk6GJQsqaUBKTNV-1" source="Q98vc-4G8OVx7oUc0Fc7-15" target="Q98vc-4G8OVx7oUc0Fc7-17">
          <mxGeometry relative="1" as="geometry" />
        </mxCell>
        <mxCell id="Q98vc-4G8OVx7oUc0Fc7-15" value="Generate a report to help teachers" style="rounded=1;whiteSpace=wrap;html=1;" vertex="1" parent="WIyWlLk6GJQsqaUBKTNV-1">
          <mxGeometry x="160" y="620" width="120" height="60" as="geometry" />
        </mxCell>
        <mxCell id="Q98vc-4G8OVx7oUc0Fc7-20" value="" style="edgeStyle=orthogonalEdgeStyle;rounded=0;orthogonalLoop=1;jettySize=auto;html=1;" edge="1" parent="WIyWlLk6GJQsqaUBKTNV-1" source="Q98vc-4G8OVx7oUc0Fc7-17" target="Q98vc-4G8OVx7oUc0Fc7-19">
          <mxGeometry relative="1" as="geometry" />
        </mxCell>
        <mxCell id="Q98vc-4G8OVx7oUc0Fc7-17" value="Teachers use this feedback to modify their teaching methods." style="rounded=1;whiteSpace=wrap;html=1;" vertex="1" parent="WIyWlLk6GJQsqaUBKTNV-1">
          <mxGeometry x="160" y="710" width="120" height="60" as="geometry" />
        </mxCell>
        <mxCell id="Q98vc-4G8OVx7oUc0Fc7-22" value="" style="edgeStyle=orthogonalEdgeStyle;rounded=0;orthogonalLoop=1;jettySize=auto;html=1;" edge="1" parent="WIyWlLk6GJQsqaUBKTNV-1" source="Q98vc-4G8OVx7oUc0Fc7-19" target="Q98vc-4G8OVx7oUc0Fc7-21">
          <mxGeometry relative="1" as="geometry" />
        </mxCell>
        <mxCell id="Q98vc-4G8OVx7oUc0Fc7-19" value="End" style="rounded=1;whiteSpace=wrap;html=1;" vertex="1" parent="WIyWlLk6GJQsqaUBKTNV-1">
          <mxGeometry x="160" y="800" width="120" height="60" as="geometry" />
        </mxCell>
        <mxCell id="Q98vc-4G8OVx7oUc0Fc7-21" value="" style="ellipse;whiteSpace=wrap;html=1;aspect=fixed;" vertex="1" parent="WIyWlLk6GJQsqaUBKTNV-1">
          <mxGeometry x="195" y="890" width="50" height="50" as="geometry" />
        </mxCell>
      </root>
    </mxGraphModel>
  </diagram>
</mxfile>
